<svg xmlns="http://www.w3.org/2000/svg" xmlns:xlink="http://www.w3.org/1999/xlink" width="500" zoomAndPan="magnify" viewBox="0 0 375 374.999991" height="500" preserveAspectRatio="xMidYMid meet" version="1.0"><defs><g/><clipPath id="bcb74a6305"><path d="M 71.886719 37.5 L 308 37.5 L 308 166.5 L 71.886719 166.5 Z M 71.886719 37.5 " clip-rule="nonzero"/></clipPath><clipPath id="7f6db1f8a4"><path d="M 210.046875 152.0625 L 285.046875 152.0625 L 285.046875 301.3125 L 210.046875 301.3125 Z M 210.046875 152.0625 " clip-rule="nonzero"/></clipPath><clipPath id="a01233ea84"><path d="M 77.800781 189.503906 L 203.800781 189.503906 L 203.800781 300.503906 L 77.800781 300.503906 Z M 77.800781 189.503906 " clip-rule="nonzero"/></clipPath><clipPath id="b591e65f16"><path d="M 75 91 L 212 91 L 212 189 L 75 189 Z M 75 91 " clip-rule="nonzero"/></clipPath><clipPath id="7666e89c4a"><path d="M 66.984375 125.625 L 207.792969 88.976562 L 228.574219 168.816406 L 87.765625 205.464844 Z M 66.984375 125.625 " clip-rule="nonzero"/></clipPath><clipPath id="70fe2a2cf5"><path d="M 66.984375 125.625 L 207.792969 88.976562 L 228.574219 168.816406 L 87.765625 205.464844 Z M 66.984375 125.625 " clip-rule="nonzero"/></clipPath></defs><g clip-path="url(#bcb74a6305)"><path fill="#ff914d" d="M 307.921875 155.476562 L 189.945312 37.5 L 189.785156 37.660156 L 189.628906 37.5 L 147.058594 80.386719 L 147.058594 69.226562 L 99.710938 69.226562 L 99.710938 127.578125 L 71.96875 155.316406 L 82.96875 166.316406 L 189.945312 59.5 L 296.921875 166.476562 Z M 115.335938 85.007812 L 131.277344 85.007812 L 131.277344 96.167969 L 115.335938 112.113281 Z M 115.335938 85.007812 " fill-opacity="1" fill-rule="nonzero"/></g><g clip-path="url(#7f6db1f8a4)"><path fill="#ff914d" d="M 247.535156 152.253906 C 226.832031 152.253906 210.046875 169.039062 210.046875 189.742188 L 210.046875 301.460938 L 285.023438 301.460938 L 285.023438 189.742188 C 285.023438 169.039062 268.238281 152.253906 247.535156 152.253906 Z M 250.242188 167.421875 C 260.5 168.636719 268.613281 176.78125 269.855469 187.007812 L 250.242188 187.007812 Z M 244.832031 167.421875 L 244.832031 187.007812 L 225.21875 187.007812 C 226.460938 176.75 234.574219 168.636719 244.832031 167.421875 Z M 225.03125 192.414062 L 244.832031 192.414062 L 244.832031 212.214844 L 250.242188 212.214844 L 250.242188 192.414062 L 270.042969 192.414062 L 270.042969 212.246094 L 225.03125 212.246094 Z M 273.863281 236.835938 C 271.75 236.835938 270.042969 235.125 270.042969 233.011719 C 270.042969 230.898438 271.75 229.1875 273.863281 229.1875 C 275.980469 229.1875 277.6875 230.898438 277.6875 233.011719 C 277.6875 235.125 275.980469 236.835938 273.863281 236.835938 Z M 273.863281 236.835938 " fill-opacity="1" fill-rule="nonzero"/></g><g clip-path="url(#a01233ea84)"><path fill="#ff914d" d="M 202.898438 216.527344 L 193.953125 192.054688 C 193.410156 190.5625 191.988281 189.570312 190.398438 189.570312 L 176.6875 189.570312 C 175.097656 189.570312 173.675781 190.5625 173.128906 192.054688 L 164.1875 216.527344 C 163.285156 219 165.113281 221.613281 167.742188 221.613281 L 181.429688 221.613281 C 181.578125 221.613281 181.699219 221.738281 181.699219 221.886719 L 181.699219 289.722656 L 177.683594 289.722656 C 175.566406 289.722656 173.851562 291.433594 173.851562 293.550781 L 173.851562 300.148438 L 193.234375 300.148438 L 193.234375 293.550781 C 193.234375 291.433594 191.519531 289.722656 189.402344 289.722656 L 185.382812 289.722656 L 185.382812 221.886719 C 185.382812 221.738281 185.503906 221.613281 185.65625 221.613281 L 199.339844 221.613281 C 201.96875 221.613281 203.800781 219 202.898438 216.527344 Z M 159.101562 248.050781 C 155.246094 248.050781 152.121094 251.175781 152.121094 255.03125 L 152.121094 267.242188 C 152.121094 270.109375 149.796875 272.433594 146.933594 272.433594 L 96.957031 272.433594 C 94.089844 272.433594 91.765625 270.109375 91.765625 267.242188 L 91.765625 255.03125 C 91.765625 251.175781 88.640625 248.050781 84.785156 248.050781 C 80.929688 248.050781 77.804688 251.175781 77.804688 255.03125 L 77.804688 293.167969 C 77.804688 297.023438 80.929688 300.148438 84.785156 300.148438 C 88.640625 300.148438 91.765625 297.023438 91.765625 293.167969 L 152.121094 293.167969 C 152.121094 297.023438 155.246094 300.148438 159.101562 300.148438 C 162.957031 300.148438 166.082031 297.023438 166.082031 293.167969 L 166.082031 255.03125 C 166.082031 251.175781 162.957031 248.050781 159.101562 248.050781 Z M 140.714844 269.082031 L 103.171875 269.082031 C 98.585938 269.082031 94.863281 265.359375 94.863281 260.769531 L 94.863281 235.335938 C 94.863281 230.746094 98.585938 227.023438 103.171875 227.023438 L 140.714844 227.023438 C 145.304688 227.023438 149.023438 230.746094 149.023438 235.335938 L 149.023438 260.769531 C 149.023438 265.359375 145.304688 269.082031 140.714844 269.082031 " fill-opacity="1" fill-rule="evenodd"/></g><g clip-path="url(#b591e65f16)"><g clip-path="url(#7666e89c4a)"><g clip-path="url(#70fe2a2cf5)"><path fill="#ffffff" d="M 198.40625 91.722656 C 193.703125 93.3125 189.769531 98.777344 187.359375 107.0625 C 187.167969 107.722656 186.9375 107.660156 184.328125 106.226562 C 176.488281 101.867188 169.273438 100.867188 163.410156 103.28125 C 155.144531 106.6875 154.070312 117.042969 160.863281 127.492188 C 170.449219 142.207031 188.882812 149.960938 199.761719 143.886719 C 200.75 143.320312 201.621094 142.910156 201.695312 142.953125 C 201.765625 142.996094 201.261719 144.351562 200.609375 145.960938 C 199.023438 149.863281 193.089844 159.890625 190.328125 163.398438 C 185.503906 169.460938 179.320312 174.988281 173.378906 178.523438 C 165.554688 183.164062 155.785156 186.105469 146.453125 186.605469 C 130.507812 187.449219 112.621094 182.609375 96.398438 173.113281 C 87.796875 168.066406 81.054688 162.746094 78.667969 159.109375 C 77.289062 156.988281 76.523438 156.515625 75.964844 157.304688 C 75.425781 158.058594 75.75 158.953125 77.207031 160.902344 C 80.300781 165.023438 87.703125 170.753906 96.042969 175.503906 C 114.730469 186.132812 133.992188 190.246094 152.992188 187.71875 C 155.445312 187.386719 165.40625 184.367188 167.949219 183.183594 C 179.660156 177.714844 188.863281 169.535156 196.902344 157.367188 C 201.210938 150.859375 206.300781 139.703125 208.394531 132.113281 C 210.785156 123.410156 212.074219 113.886719 211.773438 107.199219 C 211.6875 105.351562 211.242188 102.804688 210.65625 100.445312 C 209.410156 95.65625 208.300781 93.863281 205.589844 92.273438 C 203.285156 90.945312 201.21875 90.777344 198.40625 91.722656 Z M 206.917969 122.089844 C 206.207031 129.589844 203.195312 140.726562 201.464844 142.1875 C 200.257812 143.203125 195.5 144.566406 193.046875 144.5625 C 183.820312 144.636719 172.378906 137.386719 165.75 127.320312 C 161.082031 120.207031 160 113.109375 163.035156 109.71875 C 164.007812 108.636719 164.46875 108.394531 166.675781 107.820312 C 168.941406 107.230469 169.523438 107.234375 172.082031 107.761719 C 177.101562 108.8125 182.589844 112.375 185.503906 116.515625 C 187.160156 118.871094 189.292969 120.246094 191.09375 120.113281 C 194.253906 119.902344 196.273438 117.417969 197.601562 112.050781 C 199.234375 105.5 201.441406 100.332031 202.730469 99.996094 C 203.335938 99.839844 204.230469 101.046875 205.304688 103.523438 C 206.992188 107.433594 207.640625 114.734375 206.917969 122.089844 Z M 206.917969 122.089844 " fill-opacity="1" fill-rule="nonzero"/></g></g></g><g fill="#ffffff" fill-opacity="1"><g transform="translate(137.402343, 353.248981)"><g><path d="M 24.640625 -32.21875 C 27.179688 -32.21875 28.421875 -30.898438 28.359375 -28.265625 C 28.328125 -20.179688 28.328125 -12.078125 28.359375 -3.953125 C 28.390625 -2.679688 28.0625 -1.703125 27.375 -1.015625 C 26.695312 -0.335938 25.722656 0 24.453125 0 L 23.765625 0 C 21.585938 0 20.035156 -0.972656 19.109375 -2.921875 L 10.140625 -21.578125 L 10.046875 -21.578125 C 10.109375 -18.285156 10.203125 -15.242188 10.328125 -12.453125 C 10.453125 -9.671875 10.601562 -6.882812 10.78125 -4.09375 C 10.9375 -1.363281 9.757812 0 7.25 0 C 6.039062 0 5.109375 -0.335938 4.453125 -1.015625 C 3.804688 -1.703125 3.5 -2.679688 3.53125 -3.953125 C 3.5625 -12.078125 3.5625 -20.179688 3.53125 -28.265625 C 3.5 -29.535156 3.820312 -30.507812 4.5 -31.1875 C 5.1875 -31.875 6.164062 -32.21875 7.4375 -32.21875 L 9.8125 -32.21875 C 11.976562 -32.21875 13.53125 -31.242188 14.46875 -29.296875 L 21.71875 -14.1875 L 21.8125 -14.1875 C 21.75 -16.726562 21.65625 -19.144531 21.53125 -21.4375 C 21.40625 -23.726562 21.265625 -25.957031 21.109375 -28.125 C 20.921875 -30.851562 22.097656 -32.21875 24.640625 -32.21875 Z M 24.640625 -32.21875 "/></g></g></g><g fill="#ffffff" fill-opacity="1"><g transform="translate(169.29326, 353.248981)"><g><path d="M 6.609375 -28.96875 C 4.898438 -28.96875 3.664062 -29.273438 2.90625 -29.890625 C 2.144531 -30.515625 1.765625 -31.523438 1.765625 -32.921875 C 1.765625 -34.316406 2.144531 -35.320312 2.90625 -35.9375 C 3.664062 -36.5625 4.898438 -36.875 6.609375 -36.875 C 8.335938 -36.875 9.570312 -36.5625 10.3125 -35.9375 C 11.0625 -35.320312 11.4375 -34.316406 11.4375 -32.921875 C 11.4375 -31.523438 11.0625 -30.515625 10.3125 -29.890625 C 9.570312 -29.273438 8.335938 -28.96875 6.609375 -28.96875 Z M 6.75 0 C 4.113281 0 2.796875 -1.316406 2.796875 -3.953125 L 2.796875 -7.90625 C 2.765625 -11.34375 2.75 -14.15625 2.75 -16.34375 C 2.75 -18.53125 2.734375 -20.351562 2.703125 -21.8125 C 2.703125 -24.414062 4.019531 -25.71875 6.65625 -25.71875 L 6.703125 -25.71875 C 9.335938 -25.71875 10.65625 -24.398438 10.65625 -21.765625 C 10.65625 -20.148438 10.65625 -18.457031 10.65625 -16.6875 C 10.65625 -14.925781 10.640625 -13.332031 10.609375 -11.90625 C 10.578125 -10.570312 10.566406 -9.242188 10.578125 -7.921875 C 10.597656 -6.609375 10.609375 -5.285156 10.609375 -3.953125 C 10.660156 -1.316406 9.375 0 6.75 0 Z M 6.75 0 "/></g></g></g><g fill="#ffffff" fill-opacity="1"><g transform="translate(182.495918, 353.248981)"><g><path d="M 21.578125 -33.90625 C 24.210938 -33.90625 25.53125 -32.585938 25.53125 -29.953125 C 25.5 -26.910156 25.46875 -23.90625 25.4375 -20.9375 C 25.40625 -17.976562 25.390625 -14.96875 25.390625 -11.90625 C 25.390625 -10.539062 25.394531 -9.207031 25.40625 -7.90625 C 25.425781 -6.601562 25.453125 -5.285156 25.484375 -3.953125 C 25.546875 -1.316406 24.488281 0 22.3125 0 C 20.144531 0 18.90625 -0.445312 18.59375 -1.34375 C 18.53125 -1.59375 18.46875 -1.832031 18.40625 -2.0625 C 18.351562 -2.300781 18.296875 -2.53125 18.234375 -2.75 C 17.609375 -1.90625 16.757812 -1.148438 15.6875 -0.484375 C 14.625 0.179688 13.300781 0.515625 11.71875 0.515625 C 9.851562 0.515625 8.160156 0.128906 6.640625 -0.640625 C 5.128906 -1.421875 3.921875 -2.738281 3.015625 -4.59375 C 2.117188 -6.457031 1.671875 -9.019531 1.671875 -12.28125 C 1.671875 -15.34375 2.113281 -17.894531 3 -19.9375 C 3.882812 -21.988281 5.078125 -23.523438 6.578125 -24.546875 C 8.078125 -25.578125 9.742188 -26.09375 11.578125 -26.09375 C 12.847656 -26.09375 13.984375 -25.78125 14.984375 -25.15625 C 15.992188 -24.53125 16.8125 -23.691406 17.4375 -22.640625 C 17.40625 -23.847656 17.390625 -25.054688 17.390625 -26.265625 C 17.390625 -27.484375 17.375 -28.710938 17.34375 -29.953125 C 17.34375 -32.585938 18.660156 -33.90625 21.296875 -33.90625 Z M 13.90625 -6.046875 C 14.707031 -6.046875 15.367188 -6.160156 15.890625 -6.390625 C 16.421875 -6.628906 16.890625 -6.976562 17.296875 -7.4375 C 17.296875 -8.1875 17.300781 -8.921875 17.3125 -9.640625 C 17.332031 -10.367188 17.359375 -11.125 17.390625 -11.90625 C 17.421875 -12.800781 17.4375 -13.695312 17.4375 -14.59375 C 17.4375 -15.5 17.4375 -16.382812 17.4375 -17.25 C 17.15625 -18.207031 16.671875 -18.875 15.984375 -19.25 C 15.304688 -19.625 14.550781 -19.8125 13.71875 -19.8125 C 12.914062 -19.8125 12.171875 -19.613281 11.484375 -19.21875 C 10.804688 -18.832031 10.253906 -18.132812 9.828125 -17.125 C 9.410156 -16.125 9.203125 -14.660156 9.203125 -12.734375 C 9.203125 -10.285156 9.613281 -8.554688 10.4375 -7.546875 C 11.257812 -6.546875 12.414062 -6.046875 13.90625 -6.046875 Z M 13.90625 -6.046875 "/></g></g></g><g fill="#ff914d" fill-opacity="1"><g transform="translate(210.539053, 353.248981)"><g><path d="M 13.625 0.5625 C 5.65625 0.5625 1.671875 -3.882812 1.671875 -12.78125 C 1.671875 -21.6875 5.65625 -26.140625 13.625 -26.140625 C 21.46875 -26.140625 25.390625 -21.6875 25.390625 -12.78125 C 25.390625 -3.882812 21.46875 0.5625 13.625 0.5625 Z M 13.625 -5.109375 C 14.363281 -5.109375 15.019531 -5.316406 15.59375 -5.734375 C 16.175781 -6.160156 16.628906 -6.929688 16.953125 -8.046875 C 17.273438 -9.160156 17.4375 -10.738281 17.4375 -12.78125 C 17.4375 -15.632812 17.140625 -17.625 16.546875 -18.75 C 15.960938 -19.882812 14.988281 -20.453125 13.625 -20.453125 C 12.164062 -20.453125 11.132812 -19.882812 10.53125 -18.75 C 9.925781 -17.625 9.625 -15.632812 9.625 -12.78125 C 9.625 -10.738281 9.796875 -9.160156 10.140625 -8.046875 C 10.484375 -6.929688 10.957031 -6.160156 11.5625 -5.734375 C 12.164062 -5.316406 12.851562 -5.109375 13.625 -5.109375 Z M 13.625 -5.109375 "/></g></g></g></svg>